<svg width="979" height="232" viewBox="0 0 979 232" fill="none" xmlns="http://www.w3.org/2000/svg">
<path fill-rule="evenodd" clip-rule="evenodd" d="M0.0292969 224.425C18.2883 228.273 42.4613 231.922 68.5403 231.922V231.915C115.63 231.915 149.81 206.44 149.81 171.34C149.81 130.177 113.298 112.768 77.5883 101.162C34.3873 87.128 34.3873 73.265 34.3873 68.045C34.3873 63.84 36.3423 42.864 74.9613 42.864C100.669 42.864 126.392 48.338 142.326 52.536V18.445C124.499 14.226 100.025 9.87799 74.9613 9.87799C23.6593 9.87799 0.296326 38.852 0.296326 68.045C0.296326 97.239 21.4093 117.7 66.7363 132.427C111.933 147.113 115.719 160.214 115.719 171.34C115.719 187.076 95.2713 198.936 68.5403 198.936C41.8093 198.936 16.9033 194.498 0.0292969 190.553V224.425ZM365.167 232H330.561V138.203H229.667V232H195.061V9.672H229.667V103.597H330.561V9.672H365.167V232ZM428.323 232H393.718L491.901 0L590.084 232H555.481L491.901 81.558L464.525 146.338L473.922 223.883L452.164 175.586L428.323 232ZM655.003 232H620.397V9.672H620.658H697.874C733.365 9.672 762.14 38.447 762.14 73.937C762.14 100.737 745.725 123.702 722.41 133.339L764.164 232H729.552L689.91 138.203H655.003V232ZM853.99 232H819.388V9.67899H853.99V100.6L931.46 9.67899H970.35L897.2 98.377L978.882 232H942.609L875.03 125.259L853.99 150.769V232ZM503.102 162.67L495.982 176.862L495.975 176.869L515.929 192.227L503.102 162.67ZM697.874 43.763H655.01V104.119H697.874C714.515 104.119 728.055 90.585 728.055 73.944C728.055 57.303 714.515 43.77 697.874 43.77V43.763Z" fill="black" fill-opacity="1"/>
</svg>
